#N canvas 903 256 303 280 12;
#X obj 35 24 r fromGUI;
#X obj 35 48 list trim;
#X obj 35 120 int;
#X obj 35 96 * 80;
#X obj 35 144 + 30;
#X obj 35 168 mtof;
#X obj 103 150 osc~;
#X obj 103 174 *~;
#X obj 103 198 dac~;
#X floatatom 35 192 5 0 0 0 - - - 0;
#X obj 35 72 route /mySlider /myToggle;
#X obj 121 97 * 0.3;
#X connect 0 0 1 0;
#X connect 1 0 10 0;
#X connect 2 0 4 0;
#X connect 3 0 2 0;
#X connect 4 0 5 0;
#X connect 5 0 9 0;
#X connect 6 0 7 0;
#X connect 7 0 8 0;
#X connect 7 0 8 1;
#X connect 9 0 6 0;
#X connect 10 0 3 0;
#X connect 10 1 11 0;
#X connect 11 0 7 1;
