#N canvas 529 69 405 348 12;
#N canvas 836 84 627 756 mmp-cntrl 0;
#X obj 47 30 r fromSystem;
#X obj 47 54 list trim;
#X obj 47 78 route /tilts;
#X obj 47 102 unpack 0 0;
#X obj 47 126 + 1;
#X obj 114 126 + 1;
#X obj 192 53 list trim;
#X obj 192 29 r fromGUI;
#X obj 192 77 route /myButton;
#X obj 47 150 * 60;
#X obj 47 174 + 40;
#X obj 47 198 mtof;
#X floatatom 47 222 5 0 0 0 - - - 0;
#X msg 192 123 \$1 50;
#X obj 192 147 line~;
#X obj 192 175 s~ on;
#X msg 114 151 \$1 50;
#X obj 114 175 line~;
#X obj 114 202 s~ vol;
#X obj 47 298 s~ pitch;
#X msg 47 247 \$1 50;
#X obj 47 271 line~;
#X obj 192 100 * 0.3;
#X connect 0 0 1 0;
#X connect 1 0 2 0;
#X connect 2 0 3 0;
#X connect 3 0 4 0;
#X connect 3 1 5 0;
#X connect 4 0 9 0;
#X connect 5 0 16 0;
#X connect 6 0 8 0;
#X connect 7 0 6 0;
#X connect 8 0 22 0;
#X connect 9 0 10 0;
#X connect 10 0 11 0;
#X connect 11 0 12 0;
#X connect 12 0 20 0;
#X connect 13 0 14 0;
#X connect 14 0 15 0;
#X connect 16 0 17 0;
#X connect 17 0 18 0;
#X connect 20 0 21 0;
#X connect 21 0 19 0;
#X connect 22 0 13 0;
#X restore 34 26 pd mmp-cntrl;
#N canvas 159 78 703 550 synth 0;
#X obj 178 73 r~ on;
#X obj 117 73 r~ vol;
#X obj 46 73 r~ pitch;
#X obj 46 100 osc~;
#X obj 46 151 expr~ sin($v1);
#X obj 46 124 *~;
#X obj 46 175 *~;
#X obj 46 199 outlet~;
#X connect 0 0 6 1;
#X connect 1 0 5 1;
#X connect 2 0 3 0;
#X connect 3 0 5 0;
#X connect 4 0 6 0;
#X connect 5 0 4 0;
#X connect 6 0 7 0;
#X restore 34 56 pd synth;
#N canvas 179 204 502 430 rev-out 0;
#X obj 77 45 inlet~;
#X obj 77 152 dac~;
#X obj 110 120 rev1~;
#X obj 126 69 loadbang;
#X msg 126 93 90;
#X connect 0 0 2 0;
#X connect 0 0 1 0;
#X connect 0 0 1 1;
#X connect 2 0 1 1;
#X connect 2 0 1 0;
#X connect 3 0 4 0;
#X connect 4 0 2 1;
#X restore 34 85 pd rev-out;
#X connect 1 0 2 0;
