#N canvas 1089 342 554 702 12;
#X obj 170 621 outlet~;
#X obj 170 544 *~;
#X obj 234 169 mtof;
#X obj 296 484 pow~ 4;
#X obj 194 70 inlet;
#X obj 194 94 unpack 0 0 0;
#X obj 296 213 sel 1;
#X obj 170 570 expr~ sin($v1);
#X obj 170 594 *~ 0.3;
#X obj 296 509 *~;
#X obj 296 459 line~;
#X obj 343 213 sel 0;
#X obj 357 484 * 2;
#X msg 343 435 0 2000;
#X obj 107 434 *~;
#X obj 125 382 line~;
#X obj 89 506 cos~;
#X obj 89 476 +~;
#X obj 125 359 pack 0 50;
#X obj 31 307 phasor~;
#X obj 107 306 osc~;
#X obj 31 279 *;
#X obj 16 213 r cm;
#X text 20 196 carrier;
#X obj 107 281 *;
#X text 98 196 mod 1;
#X obj 93 213 r m1;
#X obj 216 434 *~;
#X obj 234 382 line~;
#X obj 234 359 pack 0 50;
#X obj 216 308 osc~;
#X obj 216 283 *;
#X text 206 196 mod 2;
#X obj 201 213 r m2;
#X obj 234 334 r i2;
#X obj 125 334 r i1;
#X text 167 333 index;
#X obj 316 303 pow~ 4;
#X obj 316 278 line~;
#X msg 316 254 1 50;
#X msg 296 435 1 30;
#X msg 363 254 0 3000;
#X obj 422 302 pow~ 4;
#X obj 422 277 line~;
#X msg 422 253 1 150;
#X msg 469 253 0 1300;
#X obj 125 406 *~;
#X obj 234 406 *~;
#X obj 16 248 t b f;
#X obj 93 248 t b f;
#X obj 201 248 t b f;
#X obj 234 120 * 60;
#X obj 234 144 + 30;
#X connect 1 0 7 0;
#X connect 2 0 31 0;
#X connect 2 0 24 0;
#X connect 2 0 21 0;
#X connect 3 0 9 0;
#X connect 4 0 5 0;
#X connect 5 0 6 0;
#X connect 5 1 51 0;
#X connect 5 2 12 0;
#X connect 6 0 40 0;
#X connect 6 0 39 0;
#X connect 6 0 44 0;
#X connect 6 1 11 0;
#X connect 7 0 8 0;
#X connect 8 0 0 0;
#X connect 9 0 1 1;
#X connect 10 0 3 0;
#X connect 11 0 13 0;
#X connect 11 0 41 0;
#X connect 11 0 45 0;
#X connect 12 0 9 1;
#X connect 13 0 10 0;
#X connect 14 0 17 1;
#X connect 15 0 46 0;
#X connect 16 0 1 0;
#X connect 17 0 16 0;
#X connect 18 0 15 0;
#X connect 19 0 17 0;
#X connect 20 0 14 0;
#X connect 21 0 19 0;
#X connect 22 0 48 0;
#X connect 24 0 20 0;
#X connect 26 0 49 0;
#X connect 27 0 17 1;
#X connect 28 0 47 0;
#X connect 29 0 28 0;
#X connect 30 0 27 0;
#X connect 31 0 30 0;
#X connect 33 0 50 0;
#X connect 34 0 29 0;
#X connect 35 0 18 0;
#X connect 37 0 46 1;
#X connect 38 0 37 0;
#X connect 39 0 38 0;
#X connect 40 0 10 0;
#X connect 41 0 38 0;
#X connect 42 0 47 1;
#X connect 43 0 42 0;
#X connect 44 0 43 0;
#X connect 45 0 43 0;
#X connect 46 0 14 1;
#X connect 47 0 27 1;
#X connect 48 0 21 0;
#X connect 48 1 21 1;
#X connect 49 0 24 0;
#X connect 49 1 24 1;
#X connect 50 0 31 0;
#X connect 50 1 31 1;
#X connect 51 0 52 0;
#X connect 52 0 2 0;
