#N canvas 622 403 450 300 12;
#X obj 57 122 dac~;
#N canvas 311 292 506 310 mmp-ctrl 0;
#X obj 16 37 r fromGUI;
#X obj 16 61 list trim;
#X obj 16 110 route touch;
#X obj 16 165 outlet;
#X obj 367 37 r fromSystem;
#X obj 367 61 list trim;
#X obj 367 86 route /tilts;
#X obj 367 110 unpack;
#X obj 367 144 + 1;
#X obj 367 234 s i1;
#X obj 406 144 + 1;
#X obj 406 234 s i2;
#X obj 78 234 s cm;
#X obj 141 234 s m1;
#X obj 203 234 s m2;
#X obj 406 173 * 0.3;
#X obj 367 173 * 0.3;
#X obj 78 144 * 9;
#X obj 140 144 * 9;
#X obj 203 144 * 9;
#X obj 78 173 + 0.25;
#X obj 141 173 + 0.25;
#X obj 203 173 + 0.25;
#X obj 367 203 *;
#X obj 406 203 *;
#X obj 16 86 route /myMultiTouch /car /mod1 /mod2 /quant, f 45;
#N canvas 893 183 256 241 q 0;
#X obj 58 25 inlet;
#X obj 59 181 outlet;
#X obj 158 22 inlet;
#X obj 119 119 spigot;
#X obj 158 46 * -1;
#X obj 158 70 + 1;
#X obj 59 120 spigot;
#X obj 59 91 int;
#X obj 59 144 / 4;
#X obj 59 61 * 4;
#X connect 0 0 3 0;
#X connect 0 0 9 0;
#X connect 2 0 4 0;
#X connect 2 0 6 1;
#X connect 3 0 1 0;
#X connect 4 0 5 0;
#X connect 5 0 3 1;
#X connect 6 0 8 0;
#X connect 7 0 6 0;
#X connect 8 0 1 0;
#X connect 9 0 7 0;
#X restore 203 203 pd q;
#X obj 266 144 loadbang;
#X msg 266 173 1;
#N canvas 893 183 256 241 q 0;
#X obj 58 25 inlet;
#X obj 59 181 outlet;
#X obj 158 22 inlet;
#X obj 119 119 spigot;
#X obj 158 46 * -1;
#X obj 158 70 + 1;
#X obj 59 120 spigot;
#X obj 59 91 int;
#X obj 59 144 / 4;
#X obj 59 61 * 4;
#X connect 0 0 3 0;
#X connect 0 0 9 0;
#X connect 2 0 4 0;
#X connect 2 0 6 1;
#X connect 3 0 1 0;
#X connect 4 0 5 0;
#X connect 5 0 3 1;
#X connect 6 0 8 0;
#X connect 7 0 6 0;
#X connect 8 0 1 0;
#X connect 9 0 7 0;
#X restore 141 203 pd q;
#N canvas 893 183 256 241 q 0;
#X obj 58 25 inlet;
#X obj 59 181 outlet;
#X obj 158 22 inlet;
#X obj 119 119 spigot;
#X obj 158 46 * -1;
#X obj 158 70 + 1;
#X obj 59 120 spigot;
#X obj 59 91 int;
#X obj 59 144 / 4;
#X obj 59 61 * 4;
#X connect 0 0 3 0;
#X connect 0 0 9 0;
#X connect 2 0 4 0;
#X connect 2 0 6 1;
#X connect 3 0 1 0;
#X connect 4 0 5 0;
#X connect 5 0 3 1;
#X connect 6 0 8 0;
#X connect 7 0 6 0;
#X connect 8 0 1 0;
#X connect 9 0 7 0;
#X restore 78 203 pd q;
#X connect 0 0 1 0;
#X connect 1 0 25 0;
#X connect 2 0 3 0;
#X connect 4 0 5 0;
#X connect 5 0 6 0;
#X connect 6 0 7 0;
#X connect 7 0 8 0;
#X connect 7 1 10 0;
#X connect 8 0 16 0;
#X connect 10 0 15 0;
#X connect 15 0 24 0;
#X connect 15 0 24 1;
#X connect 16 0 23 0;
#X connect 16 0 23 1;
#X connect 17 0 20 0;
#X connect 18 0 21 0;
#X connect 19 0 22 0;
#X connect 20 0 30 0;
#X connect 21 0 29 0;
#X connect 22 0 26 0;
#X connect 23 0 9 0;
#X connect 24 0 11 0;
#X connect 25 0 2 0;
#X connect 25 1 17 0;
#X connect 25 2 18 0;
#X connect 25 3 19 0;
#X connect 25 4 26 1;
#X connect 25 4 29 1;
#X connect 25 4 30 1;
#X connect 26 0 14 0;
#X connect 27 0 28 0;
#X connect 28 0 26 1;
#X connect 28 0 29 1;
#X connect 28 0 30 1;
#X connect 29 0 13 0;
#X connect 30 0 12 0;
#X restore 57 60 pd mmp-ctrl;
#X obj 57 88 clone fm-synth 5;
#X connect 1 0 2 0;
#X connect 2 0 0 0;
#X connect 2 0 0 1;
