#N canvas 1089 342 265 357 12;
#X obj 65 196 osc~;
#X obj 65 303 outlet~;
#X obj 65 226 *~;
#X obj 65 171 mtof;
#X obj 111 171 pow~ 4;
#X obj 65 20 inlet;
#X obj 65 44 unpack 0 0 0;
#X obj 65 98 + 1;
#X obj 65 122 * 20;
#X obj 65 146 + 40;
#X obj 111 98 sel 1;
#X obj 65 252 expr~ sin($v1);
#X obj 65 276 *~ 0.3;
#X obj 172 146 + 1;
#X obj 111 196 *~;
#X obj 111 146 line~;
#X msg 111 122 1 50;
#X obj 158 98 sel 0;
#X msg 158 122 0 4000;
#X obj 172 171 * 2;
#X connect 0 0 2 0;
#X connect 2 0 11 0;
#X connect 3 0 0 0;
#X connect 4 0 14 0;
#X connect 5 0 6 0;
#X connect 6 0 10 0;
#X connect 6 1 7 0;
#X connect 6 2 13 0;
#X connect 7 0 8 0;
#X connect 8 0 9 0;
#X connect 9 0 3 0;
#X connect 10 0 16 0;
#X connect 10 1 17 0;
#X connect 11 0 12 0;
#X connect 12 0 1 0;
#X connect 13 0 19 0;
#X connect 14 0 2 1;
#X connect 15 0 4 0;
#X connect 16 0 15 0;
#X connect 17 0 18 0;
#X connect 18 0 15 0;
#X connect 19 0 14 1;
